<?xml version="1.0" encoding="UTF-8"?>
<!DOCTYPE svg PUBLIC "-//W3C//DTD SVG 1.1//EN" "http://www.w3.org/Graphics/SVG/1.1/DTD/svg11.dtd">
<!-- Creator: CorelDRAW -->
<svg xmlns="http://www.w3.org/2000/svg" xml:space="preserve" width="2048px" height="2048px" style="shape-rendering:geometricPrecision; text-rendering:geometricPrecision; image-rendering:optimizeQuality; fill-rule:evenodd; clip-rule:evenodd"
viewBox="0 0 2048 2048"
 xmlns:xlink="http://www.w3.org/1999/xlink">
 <defs>
  <style type="text/css">
   <![CDATA[
    .fil14 {fill:none}
    .fil1 {fill:#414141}
    .fil9 {fill:#464646}
    .fil11 {fill:#575758}
    .fil0 {fill:#6C6C6C}
    .fil2 {fill:#737373}
    .fil7 {fill:#7B7B7B}
    .fil8 {fill:#868686}
    .fil6 {fill:#959595}
    .fil3 {fill:#A1A1A1}
    .fil13 {fill:#A4A4A5}
    .fil12 {fill:#AFAFAF}
    .fil10 {fill:#BFBFBF}
    .fil5 {fill:#DCDDDD}
    .fil4 {fill:#EBEBEB}
   ]]>
  </style>
 </defs>
 <g id="Layer_x0020_1">
  <metadata id="CorelCorpID_0Corel-Layer"/>
  <g id="_344254040">
   <path id="_344253656" class="fil0" d="M1301.26 264.74c90.3272,-19.8839 183.35,-5.04922 263.658,37.0429 79.4764,41.6575 146.469,110.084 185.909,197.979 18.6673,41.5843 29.954,83.7083 35.863,126.702 5.82166,42.3579 6.39213,85.2875 3.67323,129.223 -22.0347,356.484 -233.868,548.43 -460.688,753.954 -78.7418,71.3481 -159.346,144.386 -233.54,226.24 -0.708662,0.872835 -1.46929,1.71732 -2.28425,2.52756l-10.6736 10.6276 -0.470079 0.468898c-0.870473,0.843308 -2.7437,2.99528 -4.64055,5.17323 -2.89725,3.32835 -5.8441,6.71221 -10.7209,11.198l-0.0354331 -0.0389764c-0.356693,0.361418 -0.725197,0.718111 -1.10315,1.06536 -1.83425,1.68543 -3.66969,3.77599 -5.40237,5.75197 -4.17402,4.7563 -8.06457,9.19135 -13.3902,13.102 -7.74568,5.6693 -17.9492,7.79528 -27.8705,4.88032 -10.4835,-3.09803 -18.7335,-11.8347 -26.8264,-20.4071 -2.37284,-2.51339 -4.72205,-5.00079 -6.20552,-6.42402 -0.762993,-0.731103 -1.34528,-1.30866 -1.99134,-1.97126l-0.23504 -0.237402c-1.07126,-1.10787 -1.45748,-1.51772 -1.82126,-1.9252 -48.737,-49.3477 -104.153,-101.3 -161.718,-155.264 -316.78,-296.974 -697.092,-653.508 -520.231,-1090.3 2.38701,-5.89371 4.98189,-11.9221 7.7752,-18.0709 48.3992,-106.547 128.961,-178.233 222.298,-213.342 93.1914,-35.054 198.776,-33.4465 297.45,6.51378 5.47441,2.21575 11.1626,4.66536 17.0575,7.34292 36.9874,16.8083 72.2386,42.2823 104.069,72.4264 28.0689,26.5819 53.6056,56.9682 75.3473,88.265 20.5606,-31.2414 49.7965,-61.1835 82.4316,-87.7749 64.5851,-52.6252 144.362,-93.7371 194.315,-104.726z"/>
   <path id="_344245352" class="fil1" d="M710.861 595.484c0.284646,0.0011811 0.520867,0.0106299 0.00354331,0.0472441l-0.00354331 -0.0472441z"/>
   <line id="_344262464" class="fil1" x1="710.861" y1="595.479" x2="710.861" y2= "595.479" />
   <polygon id="_344264360" class="fil1" points="710.597,595.484 710.569,595.485 "/>
   <path id="_344255240" class="fil1" d="M710.569 595.485c-0.15,0.0011811 -0.216142,0.00236221 -0.0129921,-0.0011811l0.0129921 0.0011811z"/>
   <path id="_344262392" class="fil1" d="M708.088 595.648c0.356693,0.0153543 0.885827,0.0153543 0,0.0153543l0 -0.0153543z"/>
   <path id="_344251856" class="fil1" d="M708.088 595.595l0 0.0531496c-0.242126,-0.00944883 -0.405118,-0.0259843 0,-0.0531496z"/>
   <line id="_344242184" class="fil1" x1="708.088" y1="595.584" x2="708.088" y2= "595.584" />
   <path id="_344266184" class="fil2" d="M680.604 597.435c-66.9189,5.04567 -147.273,11.1071 -176.206,-64.343 -8.42245,-21.978 -6.6378,-44.1839 2.44961,-63.2587 9.15119,-19.2071 25.8697,-34.963 46.9465,-43.5426 5.38819,-2.19567 11.0043,-3.72402 16.6524,-4.67599 2.83347,-12.4075 7.93938,-24.7996 12.8847,-32.087 10.4988,-15.4819 25.865,-26.7851 42.8989,-32.6953 17.2335,-5.97993 36.3225,-6.55985 54.0745,-0.530315 8.2819,2.81221 15.652,6.84095 22.4197,11.8193 6.15591,4.52953 11.4992,9.67678 16.4032,15.2858 37.3973,42.737 33.0331,85.8473 28.3618,132.005 -1.30984,12.9354 -2.64921,26.1685 -2.76378,38.5087 0.046063,1.02402 0.046063,2.05748 -0.00708662,3.10158l-0.0507874 0.941339 -0.0472441 1.24843c0.00472441,0.577559 -0.0011811,1.19055 -0.0307087,1.89095l-0.0708662 1.35c0.0188977,2.07756 -0.0307087,4.15512 -0.585827,6.97796l-0.0496063 -0.00944883c-1.73386,8.95158 -7.30985,17.1095 -15.9839,21.8847 -7.05827,3.90591 -12.0957,4.09252 -17.0374,4.17284l-0.264567 0.00472441 -0.0271654 0.0011811 -0.0129921 -0.0011811 -0.954331 0.0472441 -1.51417 0.0531496c-6.85394,0.294095 -16.9807,1.05827 -27.4843,1.85079z"/>
   <line id="_344262416" class="fil1" x1="1412.23" y1="635.455" x2="1412.23" y2= "635.455" />
   <path id="_344273744" class="fil3" d="M849.972 619.085c5.86654,-7.77875 12.8622,-14.7354 18.5209,-18.5894 13.6606,-9.30709 29.9044,-13.637 45.7276,-13.0169 16.0595,0.630709 31.9217,6.313 44.5725,17.0173 5.92087,5.00315 10.6618,10.6831 14.5701,16.9252 3.52559,5.62323 6.1689,11.4366 8.29961,17.4555 16.1351,45.5457 -0.657875,77.7556 -18.6366,112.243 -4.90276,9.40631 -9.92245,19.0347 -13.5248,27.861 -0.282284,0.761812 -0.597638,1.5189 -0.943702,2.2689l-0.433465 0.937796c-0.259843,0.682678 -0.520867,1.35709 -0.78189,1.99134 -0.168898,0.409843 -0.338977,0.804331 -0.507874,1.17284 -0.724016,1.8189 -1.56851,3.67441 -3.17244,6.09331l-0.034252 -0.022441c-4.9252,7.4504 -12.9567,12.8327 -22.5638,14.1473 -8.35512,1.17047 -12.9083,-0.555119 -17.4673,-2.25473l-0.869292 -0.28937c-7.40079,-2.58662 -14.4378,-4.74685 -21.7453,-6.98977 -53.7886,-16.513 -118.357,-36.3355 -117.393,-105.886 0.294095,-20.8713 9.01536,-38.5595 22.6866,-51.2587 13.7492,-12.7736 32.5418,-20.2996 52.5378,-20.5666 3.7878,-0.0484252 7.52127,0.223229 11.1591,0.760631z"/>
   <line id="_344247680" class="fil1" x1="1259.18" y1="764.846" x2="1259.18" y2= "764.846" />
   <path id="_344243600" class="fil4" d="M1056.34 625.333c-0.431103,-20.7921 6.63898,-40.6429 18.8386,-56.6292 12.1004,-15.8587 29.4473,-28.1492 49.6536,-33.9378 10.3665,-2.96811 27.5481,-4.0252 43.2071,-2.10118 3.25158,-6.91654 7.37717,-13.5638 12.4311,-19.5071 16.4445,-19.3288 39.1087,-31.6051 62.889,-34.702 23.5099,-3.05906 47.8914,2.60551 68.556,18.9071 72.0414,56.8288 36.9827,142.28 7.78347,213.456 -4.72796,11.5252 -9.28583,22.6335 -12.3685,31.004l0.0200788 0.00708662 -0.0980316 0.283465 -0.265748 0.745276 0.0129921 0.00472441 -0.102756 0.276378 -0.50315 1.26969c-1.62402,4.75512 -3.46536,9.61654 -9.66142,15.2398 -7.1126,6.44292 -16.3536,9.1252 -25.2378,8.15788l-0.011811 0.0921261c-3.22441,-0.360236 -5.31733,-0.951969 -7.34764,-1.60984 -1.03465,-0.240945 -2.04567,-0.529134 -3.03189,-0.862205l-1.27087 -0.399213 -0.522048 -0.144095 -0.131102 -0.0318898 -1.62992 -0.419292c-1.1563,-0.301181 -2.27835,-0.661418 -3.37087,-1.07599 -14.0374,-4.29567 -29.8725,-7.63938 -45.3532,-10.9051 -53.0977,-11.2039 -102.69,-21.6709 -136.605,-76.8071 -4.44567,-7.23071 -8.21457,-14.7071 -10.9866,-22.7504 -2.92796,-8.49095 -4.68307,-17.5665 -4.89331,-27.561z"/>
   <path id="_344243144" class="fil5" d="M1411.55 633.928c-0.473622,-1.08543 -0.881103,-2.18268 -1.22599,-3.28819 -5.25473,-13.5862 -12.3744,-27.9839 -19.3382,-42.0567 -23.8807,-48.2729 -46.1835,-93.3603 -23.3173,-153.817 2.99882,-7.92638 6.61182,-15.4784 11.2902,-22.6028 4.93937,-7.52245 11.0658,-14.4933 18.8776,-20.8276 16.2532,-13.1728 36.3898,-19.924 56.6221,-20.2914 20.0729,-0.367323 40.5461,5.55473 57.6213,17.7189 8.75906,6.24095 20.2075,18.9697 28.3465,32.354 7.50237,-1.73858 15.3319,-2.62795 23.1732,-2.36103 25.5106,0.872835 49.2567,10.9453 66.3993,27.554 16.9465,16.4221 27.4984,38.9091 27.3071,65.0693 -0.672048,91.1965 -90.2091,116.65 -164.788,137.852 -12.0756,3.43347 -23.7142,6.74174 -32.2689,9.50906l0.00708662 0.0200788 -0.284646 0.0992127 -0.757087 0.252756 0.00354331 0.0129921 -0.282284 0.090945 -1.31929 0.392126c-4.77992,1.67126 -9.78072,3.23859 -18.0744,1.88386 -9.50906,-1.56024 -17.3457,-7.10197 -22.0642,-14.6197l-0.0779528 0.0484252c-1.70551,-2.73307 -2.52756,-4.72914 -3.25985,-6.71693 -0.445276,-0.954331 -0.842127,-1.92047 -1.18583,-2.8937l-0.466536 -1.23662 -0.207874 -0.494882 -0.0507874 -0.124016 -0.679134 -1.52717z"/>
   <line id="_344272976" class="fil1" x1="595.641" y1="905.656" x2="595.641" y2= "905.656" />
   <line id="_344247872" class="fil1" x1="548.821" y1="921.512" x2="548.821" y2= "921.512" />
   <path id="_344270864" class="fil6" d="M467.321 672.201c7.67717,0.455906 15.398,2.11417 22.8425,4.61811 8.34568,-11.1673 21.6177,-24.0626 31.3193,-29.6729 18.0685,-10.4575 38.9941,-14.4083 58.9796,-12.163 30.8374,3.46299 56.9469,20.8606 71.3386,48.1134 4.11142,7.78819 6.99804,15.5799 9.15355,23.4886 16.9677,62.2075 -9.52796,104.992 -37.8957,150.8 -8.27009,13.3547 -16.7351,27.0225 -23.6055,40.9087l-3.80788 7.36418 -0.0614174 0.0992127 -3.81142 6.54331c-5.40119,7.49764 -14.015,12.6378 -24.0166,13.3358 -9.42639,0.675591 -13.3205,-1.83189 -18.4122,-3.87756l0.00826772 -0.0212599 -0.531496 -0.225591 -1.4126 -0.617717 0.00826772 -0.0188977c-8.74843,-3.77126 -19.7492,-8.04922 -31.1729,-12.489 -72.2882,-28.1067 -159.072,-61.8485 -151.054,-152.584 2.30906,-26.1 15.0154,-47.5607 33.5386,-62.3906 18.6343,-14.9185 43.1859,-22.7209 68.5926,-21.2103z"/>
   <line id="_344264024" class="fil1" x1="798.731" y1="1036.32" x2="798.731" y2= "1036.32" />
   <line id="_344261816" class="fil1" x1="796.853" y1="1038.16" x2="796.853" y2= "1038.16" />
   <path id="_344245544" class="fil7" d="M642.904 862.869c17.6705,-42.5067 65.263,-59.3292 107.119,-43.5945 5.04331,1.89449 9.87757,4.39961 14.4165,7.33347 10.2331,-6.76536 21.9106,-12.0402 30.1701,-13.9228 17.9008,-4.07717 36.417,-1.98662 52.4658,5.03622 24.8126,10.8579 42.0863,32.1827 46.9382,58.8048 1.33228,7.31339 1.66772,14.4508 1.38189,21.5788 -2.89843,72.5611 -57.3308,96.782 -96.665,138.215l-1.87559 1.84725c0,0 -0.0153543,0.0177165 -0.0472441,0.0519685 -0.473622,0.529134 -4.52481,5.01142 -8.52757,7.80591l-0.0212599 -0.0307087c-7.17875,4.99489 -16.3772,7.0878 -25.6087,5.0315 -9.20788,-2.05866 -12.7571,-5.69882 -17.2146,-9.53741 -7.59804,-6.54331 -14.2902,-11.8748 -21.2315,-17.4012 -50.6398,-40.324 -111.428,-88.7304 -81.3001,-161.218z"/>
   <line id="_344251088" class="fil1" x1="785.338" y1="1366.75" x2="785.338" y2= "1366.75" />
   <path id="_344254712" class="fil8" d="M816.98 1080.22c20.2122,2.27008 39.6886,10.891 54.6378,25.5461 6.96378,6.83268 12.3803,14.3882 16.6996,22.5673 4.1126,7.78819 7.0004,15.5811 9.15473,23.4886 16.9665,62.2075 -9.52914,104.992 -37.8969,150.8 -8.2689,13.3547 -16.7339,27.0225 -23.6043,40.9087 -0.364961,0.812599 -0.766536,1.61811 -1.20709,2.41181l-0.986221 1.77638c-0.341339,0.725197 -0.719292,1.50354 -1.31811,2.5689l-0.53504 0.989765c-0.431103,0.908268 -0.878741,1.8189 -1.48583,2.85591 -5.05158,9.28347 -14.6315,15.8988 -26.0398,16.7398 -8.73544,0.643701 -13.735,-1.61693 -18.561,-3.84213 -0.141732,-0.0649607 -0.0874016,-0.0519685 0.00826772,-0.0188977l0.0165354 -0.0165354 0.00354331 -0.0236221 -0.257481 -0.101575 -0.270473 -0.121654 -1.13858 -0.49252 -0.275197 -0.125197 0.00826772 -0.0188977c-8.74489,-3.7689 -19.748,-8.04922 -31.1729,-12.4902 -72.2894,-28.1055 -159.071,-61.8473 -151.052,-152.583 2.30906,-26.1 15.0154,-47.5607 33.5386,-62.3894 18.6343,-14.9185 43.1859,-22.7209 68.5926,-21.2103 7.67481,0.455906 15.3969,2.11181 22.8402,4.61693 8.25827,-11.0445 19.011,-21.3449 27.8268,-27.339 1.09843,-0.839764 2.26417,-1.62047 3.49488,-2.33268 18.0673,-10.4575 38.9941,-14.4083 58.9796,-12.1642z"/>
   <line id="_344270312" class="fil1" x1="1045.93" y1="1535.84" x2="1045.93" y2= "1535.84" />
   <line id="_344246480" class="fil1" x1="1044.05" y1="1537.68" x2="1044.05" y2= "1537.68" />
   <path id="_344273192" class="fil9" d="M1011.63 1326.13c10.2354,-6.76654 21.9154,-12.0425 30.1736,-13.9228 17.9008,-4.07717 36.4181,-1.98543 52.4646,5.03622 24.8138,10.8543 42.0874,32.1851 46.9394,58.8048 1.33347,7.31221 1.6689,14.4508 1.38189,21.5788 -2.90315,72.5623 -57.3178,96.7713 -96.665,138.215l-1.87441 1.84488 -0.0354331 0.0307087 -6.75119 6.47717c-7.43741,5.98111 -17.4815,8.63386 -27.5457,6.35315 -9.04135,-2.05748 -12.6413,-5.71182 -17.0882,-9.53859 -7.61103,-6.5563 -14.2878,-11.8725 -21.2292,-17.4 -50.6386,-40.3217 -111.43,-88.7316 -81.3036,-161.218 17.6717,-42.5091 65.2713,-59.3327 107.12,-43.5957 5.04449,1.89567 9.87639,4.40197 14.413,7.33465z"/>
   <path id="_344243648" class="fil1" d="M1235.58 1163.19c0.0011811,-0.00354331 0.0011811,-0.00236221 0,0z"/>
   <polygon id="_344272472" class="fil1" points="1235.12,1163.91 1235.09,1163.98 "/>
   <line id="_344267024" class="fil1" x1="1185.5" y1="1178.61" x2="1185.5" y2= "1178.61" />
   <path id="_344253584" class="fil10" d="M1138.6 1159.72c-100.717,-39.1583 -221.627,-86.1662 -210.895,-207.605 2.99528,-33.8457 19.4386,-61.6477 43.4103,-80.8383 24.3662,-19.5095 56.5394,-29.7047 89.8961,-27.7205 13.5213,0.801969 27.052,4.4941 39.7914,9.90355 11.8665,-18.7028 32.4981,-39.7016 47.5181,-48.3863 23.5453,-13.6299 50.8382,-18.7772 76.9205,-15.8469 40.102,4.50709 73.8969,27.0177 92.5713,62.3705 5.3941,10.213 9.22914,20.6079 12.1358,31.2709 23.0941,84.678 -13.9335,144.474 -53.5843,208.499 -12.3213,19.8992 -24.9343,40.265 -35.3055,61.2993l-5.50276 10.5189 0.0236221 0.011811 -0.462992 0.718111 -0.0318898 0.0661418c-5.24056,11.0244 -14.3138,18.9603 -27.7937,19.9205 -9.94135,0.708662 -14.3138,-2.24055 -20.2512,-4.62402l0.0141732 -0.034252 -1.54606 -0.643701 -0.655512 -0.296457 0.00826772 -0.0188977c-13.363,-5.77205 -29.5028,-12.0496 -46.2603,-18.5646z"/>
   <polygon id="_344243096" class="fil1" points="1342.28,1369.69 1342.29,1369.7 1342.02,1370.26 "/>
   <path id="_344255960" class="fil11" d="M1157.38 1278.44c0.579922,-41.4839 34.8756,-71.3008 75.2268,-71.8264 3.81024,-0.0484252 7.56851,0.226772 11.2252,0.770079 5.88662,-7.82717 12.8528,-14.7851 18.4536,-18.5977 13.6571,-9.30709 29.902,-13.637 45.7264,-13.0169 32.9823,1.29567 56.941,21.7323 67.4422,51.3981 16.1362,45.5481 -0.656693,77.7579 -18.6378,112.245 -4.90276,9.40513 -9.92127,19.0311 -13.5236,27.8575l-1.01575 2.42599 -0.0472441 -0.0177165 -0.312992 0.797245 -4.46103 9.25985 -0.0354331 -0.022441c-4.9252,7.44922 -12.9555,12.8315 -22.5638,14.1473 -8.55591,1.18465 -13.0524,-0.595276 -18.7477,-2.68701 -7.2567,-2.5252 -14.1638,-4.64646 -21.3366,-6.84804 -53.7863,-16.5118 -118.356,-36.3366 -117.392,-105.885z"/>
   <path id="_344245400" class="fil12" d="M1401.6 782.527c0.581103,-41.4874 34.878,-71.2997 75.2256,-71.8276 3.81024,-0.0484252 7.56733,0.226772 11.2252,0.770079 5.88544,-7.82717 12.8528,-14.7839 18.4536,-18.5977 13.6595,-9.30709 29.9032,-13.637 45.7276,-13.0169 32.9811,1.29567 56.9398,21.7299 67.441,51.3981 16.1351,45.5457 -0.656693,77.7579 -18.6378,112.245 -4.90276,9.40513 -9.92127,19.0311 -13.5225,27.8575l-5.83819 12.4654 -0.0200788 -0.0129921c-4.90748,7.41851 -12.8894,12.7902 -22.4528,14.1378 -8.50867,1.19882 -13.7551,-0.734646 -19.5106,-2.88544l0.00826772 -0.0200788c-7.02166,-2.42835 -13.741,-4.49174 -20.7071,-6.62835 -53.7886,-16.513 -118.358,-36.3355 -117.392,-105.885z"/>
   <line id="_344242592" class="fil1" x1="1509" y1="1136.48" x2="1509" y2= "1136.48" />
   <line id="_344261576" class="fil1" x1="1507.12" y1="1138.32" x2="1507.12" y2= "1138.32" />
   <path id="_344242496" class="fil13" d="M1353.17 963.03c17.6717,-42.5091 65.2701,-59.3327 107.12,-43.5957 5.04449,1.89567 9.87639,4.40197 14.413,7.33465 10.2354,-6.76654 21.9154,-12.0425 30.1736,-13.9228 17.9008,-4.07717 36.4181,-1.98543 52.4646,5.03622 24.8138,10.8543 42.0874,32.1851 46.9394,58.8048 1.33228,7.31221 1.6689,14.4508 1.38189,21.5788 -2.90315,72.5623 -57.3178,96.7713 -96.665,138.215l-1.87441 1.84488 -0.0354331 0.0307087 -6.75119 6.47717c-7.43741,5.98111 -17.4815,8.63386 -27.5457,6.35315 -9.04135,-2.05748 -12.6413,-5.71182 -17.0882,-9.53859 -7.61103,-6.5563 -14.2878,-11.8725 -21.2292,-17.4 -50.6386,-40.3217 -111.43,-88.7316 -81.3036,-161.218z"/>
   <line id="_344248880" class="fil1" x1="982.463" y1="1759.67" x2="982.463" y2= "1759.67" />
   <line id="_344261864" class="fil1" x1="1047.41" y1="1785.76" x2="1047.41" y2= "1785.76" />
  </g>
  <rect class="fil14" width="2048" height="2048"/>
  <rect class="fil14" width="2048" height="2048"/>
 </g>
</svg>
